<svg id="Group_15324" data-name="Group 15324" xmlns="http://www.w3.org/2000/svg" xmlns:xlink="http://www.w3.org/1999/xlink" width="26.604" height="26.604" viewBox="0 0 26.604 26.604">
  <defs>
    <linearGradient id="linear-gradient" x1="0.5" x2="0.5" y2="1" gradientUnits="objectBoundingBox">
      <stop offset="0" stop-color="#48dbe1"/>
      <stop offset="1" stop-color="#4166cd"/>
      <stop offset="1" stop-color="#236b73"/>
    </linearGradient>
  </defs>
  <path id="Path_13905" data-name="Path 13905" d="M1.663,7.238V23.865a1.663,1.663,0,0,0,1.663,1.663H23.278a1.663,1.663,0,0,0,1.663-1.663V7.238ZM3.325,2.25A3.325,3.325,0,0,0,0,5.575v18.29a3.325,3.325,0,0,0,3.325,3.325H23.278A3.325,3.325,0,0,0,26.6,23.865V5.575A3.325,3.325,0,0,0,23.278,2.25Z" transform="translate(0 -0.587)" fill="url(#linear-gradient)"/>
  <path id="Path_13906" data-name="Path 13906" d="M7.581,0a.831.831,0,0,1,.831.831v.831a.831.831,0,0,1-1.663,0V.831A.831.831,0,0,1,7.581,0ZM22.546,0a.831.831,0,0,1,.831.831v.831a.831.831,0,0,1-1.663,0V.831A.831.831,0,0,1,22.546,0Z" transform="translate(-1.762 0)" fill="url(#linear-gradient)"/>
  <path id="Path_13907" data-name="Path 13907" d="M20.052,14.331a.831.831,0,0,1,.831-.831h1.663a.831.831,0,0,1,.831.831v1.663a.831.831,0,0,1-.831.831H20.883a.831.831,0,0,1-.831-.831Zm-4.988,0a.831.831,0,0,1,.831-.831h1.663a.831.831,0,0,1,.831.831v1.663a.831.831,0,0,1-.831.831H15.895a.831.831,0,0,1-.831-.831ZM6.75,19.32a.831.831,0,0,1,.831-.831H9.244a.831.831,0,0,1,.831.831v1.663a.831.831,0,0,1-.831.831H7.581a.831.831,0,0,1-.831-.831Zm4.988,0a.831.831,0,0,1,.831-.831h1.663a.831.831,0,0,1,.831.831v1.663a.831.831,0,0,1-.831.831H12.57a.831.831,0,0,1-.831-.831Z" transform="translate(-1.762 -3.524)" fill="url(#linear-gradient)"/>
</svg>
